<svg width="20" height="19" viewBox="0 0 20 19" fill="none" xmlns="http://www.w3.org/2000/svg">
<path d="M12.4483 19H10.4828C10.1353 18.9997 9.80225 18.8615 9.55659 18.6158C9.31092 18.3702 9.17276 18.0371 9.17241 17.6897V14.4138H10.4828V17.6897H12.4483V14.4138H13.7586V11.7931C13.7584 11.6194 13.6894 11.4528 13.5665 11.33C13.4437 11.2072 13.2772 11.1381 13.1034 11.1379H7.39034L6.08 7.2069H1.96552C1.79181 7.20707 1.62526 7.27615 1.50243 7.39898C1.3796 7.52181 1.31052 7.68836 1.31034 7.86207V11.7931H2.62069V17.6897H5.24138V13.1034H6.55172V17.6897C6.55138 18.0371 6.41321 18.3702 6.16755 18.6158C5.92189 18.8615 5.5888 18.9997 5.24138 19H2.62069C2.27327 18.9997 1.94018 18.8615 1.69452 18.6158C1.44886 18.3702 1.31069 18.0371 1.31034 17.6897V13.1034C0.962926 13.1031 0.629836 12.9649 0.384174 12.7193C0.138512 12.4736 0.000346898 12.1405 0 11.7931V7.86207C0.000520348 7.34094 0.207768 6.84131 0.576261 6.47281C0.944754 6.10432 1.44439 5.89707 1.96552 5.89655H6.08C6.35498 5.89638 6.62303 5.9828 6.84612 6.14357C7.06922 6.30433 7.23602 6.53126 7.32286 6.79217L8.33379 9.82759H13.1034C13.6246 9.82811 14.1242 10.0354 14.4927 10.4038C14.8612 10.7723 15.0684 11.272 15.069 11.7931V14.4138C15.0686 14.7612 14.9305 15.0943 14.6848 15.34C14.4391 15.5856 14.106 15.7238 13.7586 15.7241V17.6897C13.7583 18.0371 13.6201 18.3702 13.3744 18.6158C13.1288 18.8615 12.7957 18.9997 12.4483 19ZM17.6897 19H16.3793V11.7931H18.3448V7.86207C18.3447 7.68836 18.2756 7.52181 18.1527 7.39898C18.0299 7.27615 17.8634 7.20707 17.6897 7.2069H15.069V5.89655H17.6897C18.2108 5.89707 18.7104 6.10432 19.0789 6.47281C19.4474 6.84131 19.6546 7.34094 19.6552 7.86207V11.7931C19.6548 12.1405 19.5167 12.4736 19.271 12.7193C19.0253 12.9649 18.6922 13.1031 18.3448 13.1034H17.6897V19ZM3.93103 5.24138C3.41271 5.24138 2.90603 5.08768 2.47506 4.79971C2.04409 4.51175 1.70819 4.10245 1.50983 3.62358C1.31148 3.14472 1.25958 2.61778 1.3607 2.10942C1.46182 1.60106 1.71142 1.13409 2.07793 0.767583C2.44444 0.401073 2.9114 0.151477 3.41976 0.050357C3.92813 -0.0507629 4.45506 0.0011355 4.93393 0.199489C5.4128 0.397843 5.82209 0.733743 6.11006 1.16471C6.39802 1.59568 6.55172 2.10237 6.55172 2.62069C6.55086 3.31547 6.27447 3.98155 5.78318 4.47284C5.2919 4.96413 4.62582 5.24051 3.93103 5.24138ZM3.93103 1.31035C3.67187 1.31035 3.41853 1.3872 3.20305 1.53118C2.98756 1.67516 2.81961 1.87981 2.72043 2.11924C2.62126 2.35868 2.59531 2.62214 2.64587 2.87633C2.69643 3.13051 2.82123 3.36399 3.00448 3.54724C3.18774 3.7305 3.42122 3.8553 3.6754 3.90586C3.92958 3.95642 4.19305 3.93047 4.43248 3.83129C4.67192 3.73211 4.87656 3.56416 5.02055 3.34868C5.16453 3.13319 5.24138 2.87985 5.24138 2.62069C5.24103 2.27327 5.10287 1.94018 4.8572 1.69452C4.61154 1.44886 4.27845 1.31069 3.93103 1.31035ZM15.7241 5.24138C15.2058 5.24138 14.6991 5.08768 14.2682 4.79971C13.8372 4.51175 13.5013 4.10245 13.3029 3.62358C13.1046 3.14472 13.0527 2.61778 13.1538 2.10942C13.2549 1.60106 13.5045 1.13409 13.871 0.767583C14.2375 0.401073 14.7045 0.151477 15.2129 0.050357C15.7212 -0.0507629 16.2482 0.0011355 16.727 0.199489C17.2059 0.397843 17.6152 0.733743 17.9032 1.16471C18.1911 1.59568 18.3448 2.10237 18.3448 2.62069C18.344 3.31547 18.0676 3.98155 17.5763 4.47284C17.085 4.96413 16.4189 5.24051 15.7241 5.24138ZM15.7241 1.31035C15.465 1.31035 15.2116 1.3872 14.9961 1.53118C14.7807 1.67516 14.6127 1.87981 14.5135 2.11924C14.4144 2.35868 14.3884 2.62214 14.439 2.87633C14.4895 3.13051 14.6143 3.36399 14.7976 3.54724C14.9808 3.7305 15.2143 3.8553 15.4685 3.90586C15.7227 3.95642 15.9861 3.93047 16.2256 3.83129C16.465 3.73211 16.6697 3.56416 16.8136 3.34868C16.9576 3.13319 17.0345 2.87985 17.0345 2.62069C17.0341 2.27327 16.896 1.94018 16.6503 1.69452C16.4046 1.44886 16.0716 1.31069 15.7241 1.31035Z" fill="white"/>
<path d="M11.4655 9.17239C11.0119 9.17239 10.5686 9.0379 10.1915 8.78593C9.81439 8.53396 9.52048 8.17583 9.34692 7.75682C9.17336 7.33781 9.12795 6.87674 9.21643 6.43192C9.30491 5.98711 9.5233 5.57851 9.844 5.25782C10.1647 4.93712 10.5733 4.71872 11.0181 4.63024C11.4629 4.54176 11.924 4.58718 12.343 4.76073C12.762 4.93429 13.1201 5.22821 13.3721 5.60531C13.6241 5.9824 13.7586 6.42575 13.7586 6.87929C13.7579 7.48724 13.5161 8.0701 13.0862 8.49999C12.6563 8.92988 12.0734 9.1717 11.4655 9.17239ZM11.4655 5.89653C11.2711 5.89653 11.0811 5.95416 10.9195 6.06215C10.7579 6.17014 10.6319 6.32362 10.5575 6.5032C10.4831 6.68278 10.4637 6.88038 10.5016 7.07101C10.5395 7.26165 10.6331 7.43676 10.7706 7.5742C10.908 7.71164 11.0831 7.80524 11.2737 7.84316C11.4644 7.88108 11.662 7.86162 11.8416 7.78724C12.0211 7.71285 12.1746 7.58689 12.2826 7.42528C12.3906 7.26366 12.4482 7.07366 12.4482 6.87929C12.4479 6.61875 12.3442 6.36898 12.16 6.18475C11.9758 6.00053 11.726 5.89687 11.4655 5.89653Z" fill="white"/>
</svg>
